<?xml version="1.0" standalone="no"?><!DOCTYPE svg PUBLIC "-//W3C//DTD SVG 1.1//EN" "http://www.w3.org/Graphics/SVG/1.1/DTD/svg11.dtd"><svg width="200" height="200" viewBox="0 0 200 200" version="1.1" xmlns="http://www.w3.org/2000/svg" xmlns:xlink="http://www.w3.org/1999/xlink"><defs><style type="text/css"><![CDATA[
@font-face { font-family: ifont; src: url("http://at.alicdn.com/t/font_1442373896_4754455.eot?#iefix") format("embedded-opentype"), url("http://at.alicdn.com/t/font_1442373896_4754455.woff") format("woff"), url("http://at.alicdn.com/t/font_1442373896_4754455.ttf") format("truetype"), url("http://at.alicdn.com/t/font_1442373896_4754455.svg#ifont") format("svg"); }

]]></style></defs><g class="transform-group"><g transform="scale(0.1953125, 0.1953125)"><path d="M713.150788 124.492362c-114.762767 0-203.049532 103.725386-203.049532 103.725386s-88.266299-103.725386-203.029066-103.725386c-90.496084 0-244.976434 79.45461-244.976434 251.600295 0 275.865955 406.077575 523.067057 448.0055 523.067057 41.941228 0 448.03006-247.200078 448.03006-523.067057C958.132338 203.946972 803.620265 124.492362 713.150788 124.492362zM713.150788 217.187531c39.035038 0 152.284335 39.117926 152.284335 158.905126 0 183.17181-265.36581 378.135176-355.333868 424.340521-89.953731-46.215578-355.310332-241.182015-355.310332-424.340521 0-119.7872 113.251344-158.905126 152.281265-158.905126 57.661258 0 115.425869 51.646264 132.437312 71.112618 17.48114 21.073968 42.800805 33.115212 70.190619 33.283034 0.193405 0 0.388856 0 0.583285 0 27.152407 0 52.404534-12.144598 70.02075-32.844036C597.699336 268.834818 655.482367 217.187531 713.150788 217.187531L713.150788 217.187531zM510.101255 865.09385c-0.779759 0-1.541099-0.12996-2.27788-0.404206-4.093225-1.5104-9.587356-3.928472-15.854083-7.015787-3.282766-1.606591-4.628414-5.578042-3.01466-8.861832 1.619894-3.288906 5.579065-4.63353 8.861832-3.01466 4.866844 2.393513 8.983605 4.259 12.284791 5.581112 1.809205-0.731664 3.886517-1.635243 6.206352-2.700505 3.331885-1.484817 7.267521-0.035816 8.783037 3.278673 1.5104 3.337002 0.055259 7.252171-3.270487 8.774851-3.728928 1.694595-6.882757 3.013637-9.428743 3.947915C511.649518 864.946494 510.874875 865.09385 510.101255 865.09385zM554.021557 842.87378c-2.27788 0-4.50664-1.187035-5.736655-3.313465-1.832741-3.15997-0.74292-7.217379 2.424212-9.036817 6.912433-4.01443 14.405081-8.491395 22.3838-13.467733 3.075035-1.912559 7.181563-1.003863 9.117658 2.106987 1.937119 3.113921 0.99363 7.198959-2.108011 9.125845-8.106632 5.067412-15.72617 9.635451-22.779819 13.697977C556.274878 842.587254 555.144124 842.87378 554.021557 842.87378zM460.225311 839.389422c-1.151219 0-2.314719-0.291642-3.362584-0.905626-7.071046-4.179183-14.642488-8.820899-22.658046-13.888312-3.076058-1.961678-3.996011-6.052856-2.02717-9.148357 1.948375-3.080152 6.02318-3.993964 9.142218-2.032286 7.856945 5.008061 15.31787 9.562796 22.262026 13.656021 3.15383 1.862417 4.201695 5.930059 2.350534 9.074679C464.683856 838.233086 462.490911 839.389422 460.225311 839.389422zM609.679182 807.64544c-2.108011 0-4.183276-1.003863-5.463432-2.88163-2.065032-3.007497-1.302669-7.139607 1.724271-9.196453 6.913457-4.746094 14.081717-9.757225 21.415752-15.050788 2.954285-2.15406 7.095605-1.471514 9.239432 1.49198 2.148943 2.965541 1.473561 7.107885-1.479701 9.246595-7.442506 5.360078-14.678304 10.432607-21.701255 15.226796C612.274286 807.272957 610.971617 807.64544 609.679182 807.64544zM404.835793 803.740504c-1.302669 0-2.62478-0.387833-3.76986-1.174756-7.016811-4.880147-14.229073-9.995655-21.586644-15.390525-2.960425-2.156106-3.593851-6.29845-1.437745-9.239432 2.163269-2.973728 6.29845-3.613294 9.252735-1.438769 7.272637 5.310959 14.385639 10.379395 21.317515 15.177678 2.997264 2.096754 3.752464 6.219655 1.675152 9.223059C408.983253 802.747897 406.930501 803.740504 404.835793 803.740504zM662.847102 768.809947c-1.966795 0-3.916193-0.87595-5.220908-2.539846-2.25332-2.898003-1.735527-7.04751 1.144056-9.305947 6.742565-5.250584 13.58132-10.688433 20.484543-16.32992 2.825348-2.314719 6.999414-1.905396 9.318226 0.931209 2.314719 2.834558 1.90028 6.993275-0.931209 9.31311-6.986111 5.720282-13.906731 11.238972-20.719904 16.537651C665.709289 768.364809 664.277684 768.809947 662.847102 768.809947zM351.907327 764.540713c-1.437745 0-2.880607-0.463558-4.099365-1.413186-6.791683-5.372358-13.679557-10.9197-20.61655-16.677844-2.801812-2.323928-3.203972-6.499018-0.865717-9.318226 2.326998-2.805906 6.511297-3.191692 9.325389-0.870834 6.858198 5.682419 13.643742 11.17655 20.355607 16.470113 2.869351 2.258437 3.362584 6.42534 1.103124 9.295714C355.8051 763.680113 353.855702 764.540713 351.907327 764.540713zM713.5816 726.795041c-1.839905 0-3.671623-0.760317-4.975315-2.240017-2.410909-2.765997-2.136663-6.936993 0.603751-9.361205 6.224772-5.450129 12.449543-11.079336 18.705014-16.859993l5.219885 4.191462 3.959172 5.351891c-6.511297 6.037507-12.840446 11.745509-19.138896 17.279548C716.69552 726.255759 715.129862 726.795041 713.5816 726.795041zM301.463448 722.223932c-1.571798 0-3.149736-0.556679-4.41045-1.683339-4.568039-4.074805-9.142218-8.239662-13.733792-12.480242l-5.835915-5.432733c-2.661619-2.503007-2.794649-6.693446-0.286526-9.361205 2.51017-2.662643 6.699586-2.777253 9.368368-0.284479l5.737678 5.351891c4.5312 4.191462 9.05012 8.308223 13.570063 12.322653 2.729158 2.428306 2.960425 6.625908 0.530073 9.354042C305.098231 721.471802 303.290049 722.223932 301.463448 722.223932zM761.58387 681.706123c-1.694595 0-3.374864-0.650823-4.666276-1.930979-2.601244-2.581802-2.601244-6.77224-0.030699-9.356089 6.068206-6.096858 12.132318-12.363585 18.187221-18.807345 2.496867-2.686179 6.704702-2.795673 9.343809-0.291642 2.679016 2.490727 2.805906 6.67912 0.296759 9.341762-6.125511 6.547113-12.289907 12.924357-18.436908 19.088754C764.983293 681.055301 763.277442 681.706123 761.58387 681.706123zM253.772262 676.79016c-1.724271 0-3.429099-0.656963-4.719488-1.979074-6.121418-6.230911-12.236696-12.650111-18.315134-19.241226-2.467191-2.686179-2.302439-6.876618 0.388856-9.361205 2.716878-2.452865 6.876618-2.290159 9.361205 0.38988 5.975085 6.492878 11.993149 12.803607 18.005073 18.931165 2.569522 2.612501 2.521426 6.797823-0.084934 9.361205C257.116427 676.157757 255.435135 676.79016 253.772262 676.79016zM806.234813 633.285321c-1.5104 0-3.040243-0.517793-4.288676-1.576915-2.783393-2.369977-3.119037-6.54302-0.748037-9.330506 5.598508-6.585999 11.115152-13.316284 16.537651-20.186761 2.246157-2.879584 6.41306-3.367701 9.30083-1.101077 2.868327 2.258437 3.354398 6.42534 1.088798 9.30083-5.517667 6.997368-11.145851 13.861706-16.84055 20.567431C809.974997 632.499421 808.110533 633.285321 806.234813 633.285321zM209.528596 628.004037c-1.888 0-3.76986-0.816598-5.079692-2.382257-5.652743-6.78452-11.225669-13.691837-16.658402-20.75572-2.222621-2.90005-1.681292-7.04751 1.212618-9.283434 2.886747-2.204202 7.064906-1.691525 9.28855 1.212618 5.329379 6.907317 10.768251 13.691837 16.317641 20.343327 2.345418 2.800789 1.966795 6.979972-0.835018 9.31925C212.531999 627.498524 211.026716 628.004037 209.528596 628.004037zM846.459956 581.12331c-1.309832 0-2.614547-0.37146-3.771907-1.173732-3.01466-2.084475-3.758604-6.213515-1.682315-9.209756 4.935406-7.132444 9.716292-14.391778 14.289448-21.750373 1.966795-3.119037 6.068206-4.00829 9.136078-2.12029 3.100618 1.938142 4.044106 6.025227 2.121314 9.130961-4.711302 7.534604-9.595542 14.978133-14.654768 22.268166C850.618673 580.130703 848.548524 581.12331 846.459956 581.12331zM169.88469 575.434751c-2.125407 0-4.221138-1.02433-5.500271-2.922563-4.964058-7.383154-9.775644-14.874779-14.368242-22.463618-1.88186-3.131317-0.889253-7.198959 2.235924-9.094122 3.131317-1.87572 7.205099-0.889253 9.094122 2.241041 4.488221 7.40669 9.171893 14.716166 14.032598 21.921265 2.040473 3.0208 1.242294 7.150864-1.796926 9.191336C172.435793 575.070454 171.163823 575.434751 169.88469 575.434751zM880.469538 524.784164c-1.030469 0-2.066055-0.237407-3.027963-0.743944-3.25923-1.662873-4.541433-5.664-2.862187-8.904811 3.971451-7.722892 7.680936-15.519462 11.122315-23.394826 1.449002-3.368724 5.425569-4.848425 8.696056-3.430122 3.367701 1.450025 4.89038 5.353938 3.429099 8.704243-3.53757 8.15575-7.374968 16.213263-11.480472 24.162306C885.17163 523.473309 882.856911 524.784164 880.469538 524.784164zM136.646682 518.594185c-2.430352 0-4.780887-1.356904-5.938246-3.683902-4.002151-8.106632-7.729032-16.317641-11.079336-24.387433-1.400906-3.374864 0.207731-7.248078 3.581572-8.650007 3.39226-1.425466 7.254218 0.212848 8.655124 3.581572 3.288906 7.948019 6.876618 15.812127 10.720156 23.583115 1.614777 3.288906 0.268106 7.260357-3.00238 8.874111C138.639059 518.377244 137.639289 518.594185 136.646682 518.594185zM905.538493 464.010009c-0.644683 0-1.303692-0.084934-1.948375-0.298805-3.496637-1.072425-5.463432-4.780887-4.371564-8.265244 2.579755-8.380878 4.780887-16.767895 6.551206-24.90011 0.76134-3.569292 4.362354-5.858428 7.865131-5.066389 3.587712 0.76134 5.841032 4.28663 5.067412 7.863085-1.834788 8.508791-4.136204 17.261129-6.841825 26.001187C910.984528 462.189547 908.371004 464.010009 905.538493 464.010009zM112.698247 457.32782c-2.886747 0-5.53097-1.899256-6.364965-4.793166-2.491751-8.721639-4.585435-17.529235-6.243191-26.190499-0.682545-3.599991 1.669012-7.057743 5.256724-7.747451 3.514033-0.681522 7.071046 1.675152 7.747451 5.262864 1.577938 8.276501 3.586688 16.694217 5.962805 25.027 1.011027 3.507894-1.029446 7.181563-4.5312 8.18031C113.909841 457.256188 113.294834 457.32782 112.698247 457.32782zM917.848866 399.515113c-0.152473 0-0.313132 0-0.451278-0.01535-3.64911-0.243547-6.41306-3.402493-6.169513-7.049556 0.36532-5.442966 0.553609-10.887978 0.553609-16.35755 0-3.130294-0.061398-6.205329-0.188288-9.244548-0.140193-3.651157 2.685155-6.737448 6.346545-6.895037 3.623527 0.078795 6.722098 2.703575 6.895037 6.349615 0.12689 3.219321 0.187265 6.477528 0.187265 9.78997 0 5.753027-0.187265 11.510148-0.573051 17.234523C924.205645 396.836097 921.307641 399.515113 917.848866 399.515113zM102.01493 392.538211c-3.538593 0-6.480598-2.789533-6.620791-6.361895-0.127913-3.358491-0.188288-6.707772-0.188288-10.083659 0-5.783727 0.188288-11.432377 0.590448-16.956184 0.268106-3.64604 3.478218-6.42534 7.083326-6.127558 3.654226 0.271176 6.395664 3.438309 6.133697 7.086395-0.3776 5.211698-0.566912 10.553357-0.566912 15.997346 0 3.192715 0.061398 6.389524 0.189312 9.56996 0.140193 3.648087-2.704598 6.723122-6.358825 6.875594C102.184799 392.538211 102.093724 392.538211 102.01493 392.538211zM913.116075 334.087984c-3.027963 0-5.749958-2.080382-6.450922-5.15644-1.90028-8.331759-4.336772-16.539698-7.229658-24.378224-1.26583-3.429099 0.481977-7.241938 3.904936-8.508791 3.440355-1.282203 7.253194 0.490164 8.513908 3.903913 3.100618 8.393157 5.693676 17.148565 7.716752 26.056446 0.817622 3.572362-1.419326 7.114025-4.994758 7.91425C914.090263 334.039889 913.596006 334.087984 913.116075 334.087984zM108.757494 327.340303c-0.559748 0-1.12666-0.064468-1.686409-0.218988-3.544733-0.932232-5.652743-4.555759-4.720511-8.086166 2.320858-8.815783 5.232165-17.480116 8.642844-25.76992 1.38351-3.38612 5.256724-5.030573 8.636704-3.592828 3.373841 1.382487 4.994758 5.250584 3.592828 8.636704-3.178389 7.744381-5.895267 15.854083-8.063653 24.091698C114.378515 325.375555 111.68722 327.340303 108.757494 327.340303zM888.272247 273.478582c-2.205225 0-4.374634-1.11438-5.623068-3.130294-4.432962-7.123234-9.422603-14.081717-14.843056-20.662599-2.314719-2.820232-1.913583-6.998391 0.913812-9.324366 2.808976-2.302439 6.972808-1.916653 9.325389 0.919952 5.768377 7.018857 11.102872 14.455223 15.85306 22.084994 1.930979 3.103688 0.98749 7.178493-2.131547 9.117658C890.683157 273.15317 889.477702 273.478582 888.272247 273.478582zM494.064001 271.188422c-0.889253 0-1.808182-0.179079-2.672876-0.566912-6.352685-2.807952-12.090363-7.074116-16.590863-12.364609-0.249687-0.282433-2.15099-2.445702-5.500271-5.895267-2.533706-2.62478-2.467191-6.816243 0.158612-9.361205 2.612501-2.549056 6.80294-2.473331 9.355065 0.152473 3.599991 3.711532 5.652743 6.05081 5.969968 6.40078 3.325745 3.894703 7.417947 6.958482 11.961426 8.959046 3.331885 1.476631 4.860704 5.380544 3.374864 8.730848C499.029082 269.717931 496.59873 271.188422 494.064001 271.188422zM531.840372 268.088828c-2.161223 0-4.269233-1.046842-5.529947-3.003404-2.009773-3.051499-1.157359-7.16519 1.905396-9.153474 2.644223-1.735527 5.019317-3.843538 7.102768-6.261611 0.206708-0.243547 4.000104-4.577249 10.809183-11.246135 2.613524-2.552126 6.791683-2.524496 9.361205 0.100284 2.564405 2.613524 2.51017 6.800893-0.103354 9.361205-6.254447 6.144954-9.800203 10.140964-10.032494 10.42135-2.863211 3.341095-6.193049 6.288217-9.897418 8.691963C534.344402 267.737834 533.094946 268.088828 531.840372 268.088828zM135.715473 267.660062c-1.279133 0-2.558265-0.360204-3.697205-1.12666-3.02694-2.044566-3.837398-6.155187-1.796926-9.194406 4.988618-7.40976 10.573823-14.650675 16.590863-21.502733 2.430352-2.741437 6.603395-3.000334 9.343809-0.60989 2.752694 2.418073 3.01466 6.611581 0.615007 9.353019-5.65172 6.42534-10.890025 13.201673-15.561417 20.160155C139.929448 266.639826 137.83474 267.660062 135.715473 267.660062zM444.821483 227.724515c-1.468444 0-2.935865-0.474814-4.16588-1.473561-6.760984-5.484921-13.728676-10.680247-20.703531-15.464203-3.0208-2.055822-3.78214-6.181793-1.717108-9.194406 2.082428-3.01159 6.224772-3.77907 9.196453-1.720178 7.272637 4.979408 14.519692 10.384511 21.554922 16.08535 2.844791 2.302439 3.28379 6.480598 0.980327 9.31311C448.665021 226.88438 446.752462 227.724515 444.821483 227.724515zM845.149101 224.092801c-1.51654 0-3.02694-0.502443-4.270257-1.553379-6.468318-5.445012-13.356193-10.588149-20.484543-15.308661-3.046383-2.018983-3.880377-6.130627-1.862417-9.182127 2.044566-3.050476 6.16849-3.839445 9.184173-1.859347 7.541767 5.002944 14.845103 10.461259 21.697161 16.216333 2.792603 2.351558 3.15383 6.526647 0.804319 9.337669C848.912821 223.290529 847.038124 224.092801 845.149101 224.092801zM580.56612 223.784786c-1.967818 0-3.934612-0.880043-5.237281-2.561335-2.235924-2.895957-1.705851-7.05058 1.174756-9.299807 7.205099-5.585205 14.57495-10.848069 21.884426-15.619746 3.01466-2.020006 7.14984-1.191128 9.153474 1.912559 2.004657 3.054569 1.152243 7.166213-1.918699 9.157567-7.004531 4.592598-14.062274 9.647731-21.00029 15.026228C583.429331 223.327368 581.984423 223.784786 580.56612 223.784786zM180.44521 219.709981c-1.955538 0-3.880377-0.867764-5.195326-2.509147-2.2656-2.868327-1.772366-7.03523 1.084705-9.31004 7.058766-5.573949 14.519692-10.8143 22.182208-15.559371 3.069919-1.90028 7.169283-0.971118 9.111518 2.134617 1.930979 3.115967 0.969071 7.190773-2.131547 9.115612-7.241938 4.488221-14.294564 9.42772-20.939915 14.702863C183.33912 219.244376 181.895235 219.709981 180.44521 219.709981zM389.658116 191.868889c-0.99977 0-1.992377-0.223081-2.936889-0.688685-7.850805-3.888564-15.761985-7.266497-23.51046-10.034541-3.459798-1.227967-5.237281-5.016247-4.00829-8.457626 1.224898-3.449565 5.007037-5.198395 8.454556-4.007267 8.234545 2.948145 16.633842 6.517437 24.929786 10.628058 3.288906 1.629103 4.622274 5.600555 3.00238 8.871041C394.439002 190.519148 392.087445 191.868889 389.658116 191.868889zM789.478174 189.279924c-0.917906 0-1.839905-0.179079-2.714831-0.581238-7.838525-3.529383-15.884782-6.620791-23.890107-9.166777-3.476171-1.11438-5.402033-4.839215-4.29277-8.328689 1.116427-3.478218 4.805446-5.378497 8.333806-4.293793 8.478092 2.715855 16.987906 5.975085 25.27464 9.712199 3.345188 1.49812 4.824889 5.420453 3.327792 8.755408C794.411533 187.830923 792.000624 189.279924 789.478174 189.279924zM636.479571 189.17657c-2.495844 0-4.88424-1.424442-6.000668-3.839445-1.532913-3.310396-0.097214-7.241938 3.229554-8.779967 8.374738-3.895727 16.870226-7.245008 25.221428-9.958816 3.494591-1.111311 7.217379 0.776689 8.344039 4.254907 1.119497 3.477194-0.774643 7.214309-4.257977 8.340969-7.844665 2.545986-15.835663 5.703909-23.75503 9.361205C638.373711 188.985212 637.411803 189.17657 636.479571 189.17657zM237.12614 186.524161c-2.601244 0-5.055133-1.534959-6.121418-4.087085-1.388627-3.370771 0.212848-7.250124 3.587712-8.648984 8.478092-3.501754 17.08512-6.517437 25.575492-8.947789 3.557012-1.074472 7.1744 1.032516 8.191566 4.535293 1.004887 3.520173-1.029446 7.192819-4.54348 8.188496-8.021697 2.302439-16.152888 5.130857-24.156166 8.456602C238.838132 186.371688 237.966275 186.524161 237.12614 186.524161zM327.14127 172.143639c-0.280386 0-0.566912-0.01228-0.864694-0.049119-8.314363-1.074472-16.256242-1.51347-25.082258-1.099031-4.104481 0.385786-6.767124-2.638083-6.936993-6.2831-0.176009-3.651157 2.63706-6.764054 6.291287-6.933923 9.495258-0.502443 18.345834 0 27.432793 1.175779 3.624551 0.480954 6.181793 3.792373 5.719258 7.424086C333.256548 169.71431 330.41892 172.143639 327.14127 172.143639zM727.006354 158.336168c-4.837168-0.493234-9.484002-0.73678-13.855566-0.73678-4.64888 0-9.252735 0.218988-13.833053 0.605797-3.63683 0.311085-6.334265 3.518127-6.025227 7.16519 0.291642 3.450589 3.179412 6.051833 6.577812 6.051833 0.195451 0 0.385786-0.01535 0.586354-0.024559 4.189416-0.36532 8.429996-0.556679 12.69309-0.556679 3.958148 0 8.135284 0.218988 12.510942 0.657986 0.231267 0.027629 0.456395 0.042979 0.687662 0.042979 3.342118 0 6.224772-2.552126 6.565533-5.950526C733.292524 161.945369 730.634997 158.695349 727.006354 158.336168z" fill="#272636"></path></g></g></svg>