<?xml version="1.0" standalone="no"?><!DOCTYPE svg PUBLIC "-//W3C//DTD SVG 1.1//EN" "http://www.w3.org/Graphics/SVG/1.1/DTD/svg11.dtd"><svg width="200" height="200" viewBox="0 0 200 200" version="1.1" xmlns="http://www.w3.org/2000/svg" xmlns:xlink="http://www.w3.org/1999/xlink"><defs><style type="text/css"><![CDATA[
@font-face { font-family: ifont; src: url("http://at.alicdn.com/t/font_1442373896_4754455.eot?#iefix") format("embedded-opentype"), url("http://at.alicdn.com/t/font_1442373896_4754455.woff") format("woff"), url("http://at.alicdn.com/t/font_1442373896_4754455.ttf") format("truetype"), url("http://at.alicdn.com/t/font_1442373896_4754455.svg#ifont") format("svg"); }

]]></style></defs><g class="transform-group"><g transform="scale(0.1953125, 0.1953125)"><path d="M512 1024c-282.794667 0-512-229.205333-512-512s229.205333-512 512-512 512 229.205333 512 512S794.794667 1024 512 1024zM512 56.888889C260.664889 56.888889 56.888889 260.664889 56.888889 512s203.776 455.111111 455.111111 455.111111c251.335111 0 455.111111-203.776 455.111111-455.111111S763.335111 56.888889 512 56.888889zM398.222222 312.888889l341.333333 0L739.555556 739.555556 398.222222 739.555556 398.222222 312.888889zM455.111111 682.666667l227.555556 0L682.666667 369.777778 455.111111 369.777778 455.111111 682.666667zM483.555556 512l170.666667 0 0 28.444444-170.666667 0L483.555556 512zM483.555556 426.666667l170.666667 0L654.222222 455.111111l-170.666667 0L483.555556 426.666667zM625.777778 625.777778 483.555556 625.777778l0-28.444444L625.777778 597.333333 625.777778 625.777778zM369.777778 284.444444 341.333333 284.444444l0 312.888889 28.444444 0 0 56.888889L284.444444 654.222222 284.444444 227.555556l341.333333 0 0 56.888889-56.888889 0L369.777778 284.444444z" fill="#272636"></path></g></g></svg>