<?xml version="1.0" standalone="no"?><!DOCTYPE svg PUBLIC "-//W3C//DTD SVG 1.1//EN" "http://www.w3.org/Graphics/SVG/1.1/DTD/svg11.dtd"><svg width="200" height="200" viewBox="0 0 200 200" version="1.1" xmlns="http://www.w3.org/2000/svg" xmlns:xlink="http://www.w3.org/1999/xlink"><defs><style type="text/css"><![CDATA[
@font-face { font-family: ifont; src: url("http://at.alicdn.com/t/font_1442373896_4754455.eot?#iefix") format("embedded-opentype"), url("http://at.alicdn.com/t/font_1442373896_4754455.woff") format("woff"), url("http://at.alicdn.com/t/font_1442373896_4754455.ttf") format("truetype"), url("http://at.alicdn.com/t/font_1442373896_4754455.svg#ifont") format("svg"); }

]]></style></defs><g class="transform-group"><g transform="scale(0.1953125, 0.1953125)"><path d="M613.600859 382.054764c-33.866744 41.229899-74.11782 81.480975-120.743177 120.743177l233.386884 0C678.631591 465.007113 641.08327 424.756037 613.600859 382.054764zM476.661254 664.76976l267.253628 0 0 120.743177-267.253628 0 0-120.743177ZM709.872226 0 314.127774 0C140.64003 0 0 140.64003 0 314.127774l0 395.744452c0 173.487743 140.64003 314.127774 314.127774 314.127774l395.744452 0c173.487743 0 314.127774-140.64003 314.127774-314.127774L1024 314.127774C1024 140.64003 883.35997 0 709.872226 0zM381.686606 231.861479l99.392541 0 0-79.513279 54.481065 0 0 79.513279 153.13729 0 0-79.513279 54.481065 0 0 79.513279 117.0616 0 0 51.537059-117.0616 0 0 73.624011-54.481065 0 0-73.624011L535.560211 283.398539l0 73.624011-54.481065 0 0-73.624011-99.392541 0L381.686606 231.861479zM289.655964 523.412262l0 262.100675c0 51.041994-20.86311 77.546839-62.580535 79.513279-20.126795 1.472631-42.460023 1.961414-66.997172 1.472631-1.96644-19.636755-4.911702-40.003544-8.83453-61.107904 24.048366 1.961414 42.94378 2.945262 56.690011 2.945262 18.647881 0.488783 27.977476-10.06591 27.977476-31.657797L235.911215 550.652166c-24.543431 12.76364-52.030868 26.998654-82.458541 42.701273l-7.361899-64.789482c30.427673-12.757357 60.371589-26.00978 89.820439-39.757268L235.911215 343.033812l-88.349065 0 0-51.537059 88.349065 0L235.911215 148.666623l53.744749 0 0 142.830129 83.931172 0 0 51.537059-83.931172 0 0 120.006862c27.482411-13.741205 54.481065-27.977476 80.98591-42.701273 1.472631 24.543431 3.432788 44.173904 5.890524 58.898958C359.840904 487.582848 330.885862 502.307902 289.655964 523.412262zM800.604892 875.333377l-56.690011 0 0-39.757268L476.661254 835.576109l0 39.757268-56.690011 0L419.971243 614.705332l380.634906 0L800.606149 875.333377zM839.625844 577.893327c-37.305814-20.614321-70.678749-42.207464-100.128856-64.789482l0 39.020952L472.979676 552.124797l0-33.130428c-29.450107 23.559583-60.865397 46.382851-94.238332 68.469803-8.347003-11.284726-21.109386-26.504845-38.284637-45.646535 106.506907-64.294416 188.717914-135.709481 246.639306-214.245194l69.942434 0-10.307161 13.252423c53.00969 78.040648 130.06649 139.148552 231.177937 183.322456C862.201579 544.274116 849.43794 562.190707 839.625844 577.893327z" fill="#272636"></path></g></g></svg>