<?xml version="1.0" standalone="no"?><!DOCTYPE svg PUBLIC "-//W3C//DTD SVG 1.1//EN" "http://www.w3.org/Graphics/SVG/1.1/DTD/svg11.dtd"><svg width="200" height="200" viewBox="0 0 200 200" version="1.1" xmlns="http://www.w3.org/2000/svg" xmlns:xlink="http://www.w3.org/1999/xlink"><defs><style type="text/css"><![CDATA[
@font-face { font-family: ifont; src: url("http://at.alicdn.com/t/font_1442373896_4754455.eot?#iefix") format("embedded-opentype"), url("http://at.alicdn.com/t/font_1442373896_4754455.woff") format("woff"), url("http://at.alicdn.com/t/font_1442373896_4754455.ttf") format("truetype"), url("http://at.alicdn.com/t/font_1442373896_4754455.svg#ifont") format("svg"); }

]]></style></defs><g class="transform-group"><g transform="scale(0.1953125, 0.1953125)"><path d="M349.727685 172.556031l224.390583 123.766838c6.200212 3.400446 14.123672 1.348718 17.699104-4.552689l6.445806-10.695596c3.603061-5.897314 1.478677-13.495362-4.692882-16.920368l-224.400816-123.742279c-6.199189-3.425006-14.168698-1.376347-17.691941 4.499477l-6.506181 10.723226c-3.568269 5.921873-1.471514 13.495362 4.752234 16.919345l0 0L349.727685 172.553984zM155.401838 494.098281l224.38956 123.791397c6.203282 3.347235 14.120602 1.327228 17.696034-4.548596l6.473435-10.695596c3.599991-5.872754 1.450025-13.522991-4.724605-16.944927L174.820096 461.98284c-6.196119-3.428076-14.120602-1.348718-17.672498 4.520967l-6.469342 10.698666C147.053706 483.072157 149.178089 490.648716 155.401838 494.098281L155.401838 494.098281 155.401838 494.098281zM946.675402 645.282562l-449.088158-222.319411 60.335157-99.867522c3.603061-5.901407 1.450025-13.501502-4.700045-16.926508L351.27697 194.798615c-6.203282-3.40147-14.169721-1.348718-17.723663 4.551666L191.019033 435.109796c-3.501754 5.900384-1.400906 13.522991 4.746094 16.926508l201.99962 111.367437c6.147 3.425006 14.120602 1.351787 17.643845-4.520967l60.435441-99.899244 426.088328 260.356726c5.999644 3.674693 13.850449 1.822508 17.398252-4.050246l32.391734-53.611012C955.245591 655.830803 952.973852 648.433322 946.675402 645.282562L946.675402 645.282562 946.675402 645.282562zM1017.558799 676.575266l-22.497387-12.346189c-6.122441-3.402493-14.148231-1.347694-17.692964 4.552689l-38.893822 64.282049c-3.547803 5.872754-1.370207 13.495362 4.753257 16.891715l22.441105 12.349259c6.17463 3.445472 14.148231 1.3743 17.720593-4.527107l38.863123-64.282049C1025.801531 687.594227 1023.701706 679.975712 1017.558799 676.575266L1017.558799 676.575266 1017.558799 676.575266zM532.68153 752.930281l-27.047006 0c3.3984-3.64604-8.272407-0.271176-8.272407-5.52483l0-64.205301L66.521554 683.20015l0 64.205301c0 5.247514-22.992667 1.87265-19.558451 5.52483L19.925307 752.930281c-11.812023 0-19.674085 15.371082-19.674085 26.565029l0 64.212464c0 11.169387 7.886621 31.668257 19.674085 31.668257l512.75213 0c11.79872 0 30.944779-20.49887 30.944779-31.668257l0-64.212464C563.622216 768.328993 544.479227 752.930281 532.68153 752.930281L532.68153 752.930281 532.68153 752.930281zM497.362116 843.710844 66.521554 843.710844c-12.357446 0-33.139771-20.298302-33.139771-32.092929 0.038886-11.79872 20.783349-32.143071 33.139771-32.122605l430.840562 0c12.395308 0 33.168424 20.348444 33.119305 32.122605C530.481422 823.441195 509.757424 843.710844 497.362116 843.710844L497.362116 843.710844 497.362116 843.710844zM497.362116 843.710844" fill="#272636"></path></g></g></svg>