<?xml version="1.0" standalone="no"?><!DOCTYPE svg PUBLIC "-//W3C//DTD SVG 1.1//EN" "http://www.w3.org/Graphics/SVG/1.1/DTD/svg11.dtd"><svg width="200" height="200" viewBox="0 0 200 200" version="1.1" xmlns="http://www.w3.org/2000/svg" xmlns:xlink="http://www.w3.org/1999/xlink"><defs><style type="text/css"><![CDATA[
@font-face { font-family: ifont; src: url("http://at.alicdn.com/t/font_1442373896_4754455.eot?#iefix") format("embedded-opentype"), url("http://at.alicdn.com/t/font_1442373896_4754455.woff") format("woff"), url("http://at.alicdn.com/t/font_1442373896_4754455.ttf") format("truetype"), url("http://at.alicdn.com/t/font_1442373896_4754455.svg#ifont") format("svg"); }

]]></style></defs><g class="transform-group"><g transform="scale(0.1953125, 0.1953125)"><path d="M932.064 828.704C925.408 822.048 916.64 818.4 907.328 818.4L99.04 818.4C79.712 818.4 64 834.112 64 853.44 64 872.768 79.712 888.48 99.04 888.48L907.328 888.48C926.656 888.48 942.368 872.768 942.368 853.44 942.368 844.128 938.72 835.36 932.064 828.704ZM907.328 468.576 99.04 468.576C79.712 468.576 64 484.288 64 503.616 64 522.944 79.712 538.656 99.04 538.656L907.328 538.656C926.656 538.656 942.368 522.944 942.368 503.616 942.368 494.304 938.72 485.536 932.064 478.88 925.408 472.224 916.64 468.576 907.328 468.576ZM932.064 138.336C925.408 131.68 916.64 128 907.328 128L99.04 128C79.712 128 64 143.744 64 163.072 64 182.368 79.712 198.112 99.04 198.112L907.328 198.112C926.656 198.112 942.368 182.368 942.368 163.072 942.368 153.76 938.72 144.96 932.064 138.336Z" fill="#272636"></path></g></g></svg>