<?xml version="1.0" standalone="no"?><!DOCTYPE svg PUBLIC "-//W3C//DTD SVG 1.1//EN" "http://www.w3.org/Graphics/SVG/1.1/DTD/svg11.dtd"><svg width="200" height="200" viewBox="0 0 200 200" version="1.1" xmlns="http://www.w3.org/2000/svg" xmlns:xlink="http://www.w3.org/1999/xlink"><defs><style type="text/css"><![CDATA[
@font-face { font-family: ifont; src: url("http://at.alicdn.com/t/font_1442373896_4754455.eot?#iefix") format("embedded-opentype"), url("http://at.alicdn.com/t/font_1442373896_4754455.woff") format("woff"), url("http://at.alicdn.com/t/font_1442373896_4754455.ttf") format("truetype"), url("http://at.alicdn.com/t/font_1442373896_4754455.svg#ifont") format("svg"); }

]]></style></defs><g class="transform-group"><g transform="scale(0.1953125, 0.1953125)"><path d="M761.642199 540.155247c0-18.824741 15.402805-34.715663 34.472116-34.715663 19.313881 0 34.472116 15.890922 34.472116 34.715663l0 337.625554c0 19.069311-15.158235 34.472116-34.472116 34.472116l-0.733711 0L228.189607 912.252917c-19.313881 0-34.715663-15.402805-34.715663-34.472116l0-0.733711L193.473945 540.155247c0-18.824741 15.401782-34.715663 34.715663-34.715663 19.069311 0 34.226522 15.890922 34.226522 34.715663l0 302.909891 110.74936 0L373.16549 502.993882c0-11.490705 9.535167-21.024849 20.781302-21.024849l0.48914 0 235.677651 0c11.490705 0 20.535709 9.534144 20.535709 21.024849l0 0.48914 0 339.581092 110.99393 0L761.643222 540.155247 761.642199 540.155247zM414.482501 843.065138 414.482501 843.065138l195.093327 0L609.575828 524.019755l-195.093327 0L414.482501 843.065138 414.482501 843.065138zM123.064338 549.689391 123.064338 549.689391c-13.935384 13.447267-35.204803 13.447267-49.140187 0-13.446243-13.446243-13.446243-35.204803 0-48.651047L487.825926 87.38114c13.201673-13.446243 35.204803-13.446243 48.65207 0l0.48914 0.733711 412.924517 412.924517c13.690814 13.446243 13.690814 35.204803 0 48.651047-13.201673 13.447267-35.204803 13.447267-48.651047 0L512.273734 160.724565 123.064338 549.689391 123.064338 549.689391z" fill="#272636"></path></g></g></svg>