<?xml version="1.0" standalone="no"?><!DOCTYPE svg PUBLIC "-//W3C//DTD SVG 1.1//EN" "http://www.w3.org/Graphics/SVG/1.1/DTD/svg11.dtd"><svg width="200" height="200" viewBox="0 0 200 200" version="1.1" xmlns="http://www.w3.org/2000/svg" xmlns:xlink="http://www.w3.org/1999/xlink"><defs><style type="text/css"><![CDATA[
@font-face { font-family: ifont; src: url("http://at.alicdn.com/t/font_1442373896_4754455.eot?#iefix") format("embedded-opentype"), url("http://at.alicdn.com/t/font_1442373896_4754455.woff") format("woff"), url("http://at.alicdn.com/t/font_1442373896_4754455.ttf") format("truetype"), url("http://at.alicdn.com/t/font_1442373896_4754455.svg#ifont") format("svg"); }

]]></style></defs><g class="transform-group"><g transform="scale(0.1953125, 0.1953125)"><path d="M867.995947 422.463778 298.756291 422.463778l572.107983-194.142675c35.866882-10.969842 56.3064-48.973388 45.600571-84.989673l-14.668071-49.335638c-8.572236-28.833699-35.553751-48.971341-65.615417-48.971341-6.597255 0-13.168927 0.959861-19.530822 2.850931l-0.468674 0.13917L126.242216 282.142915c-35.866882 10.969842-56.307424 48.973388-45.599548 84.990696l14.667048 49.334615c4.044106 13.600763 12.186554 25.264407 22.814612 33.794687-8.433066 11.381212-13.430894 25.454742-13.430894 40.675398l0 433.196213c0 37.755905 30.716582 68.473511 68.473511 68.473511l694.829002 0c37.755905 0 68.473511-30.717605 68.473511-68.473511l0-433.196213C936.470481 453.181383 905.752876 422.463778 867.995947 422.463778zM885.305171 490.937289l0 68.77641L684.655292 559.713698l69.530586-86.084611 113.810069 0C877.540324 473.629087 885.305171 481.392912 885.305171 490.937289zM173.166945 473.629087 347.303984 473.629087l-76.42153 76.422554c-2.819209 2.819209-4.842285 6.133697-6.070252 9.662057L155.859767 559.713698l0-68.77641C155.859767 481.392912 163.623591 473.629087 173.166945 473.629087zM414.288584 479.003492c1.641383-1.641383 3.007497-3.452635 4.109598-5.374404l270.01776 0-63.352887 78.437443c-1.901303 2.354628-3.313465 4.944616-4.25593 7.647167L333.578378 559.713698 414.288584 479.003492zM141.344169 331.028299l0.468674-0.13917L831.595922 96.814999c1.5104-0.414439 3.050476-0.624217 4.583388-0.624217 7.588839 0 14.404058 5.094018 16.571421 12.386098l14.668071 49.335638c2.718925 9.147334-2.51017 18.803251-11.658528 21.522176l-0.468674 0.13917L165.509545 413.649018c-1.5104 0.414439-3.049452 0.624217-4.582365 0.624217-7.589862 0-14.404058-5.094018-16.572444-12.387122l-14.667048-49.334615C126.966717 343.404164 132.195811 333.748247 141.344169 331.028299zM867.995947 941.441703 173.166945 941.441703c-9.543354 0-17.308201-7.764847-17.308201-17.308201l0-313.254493 729.445404 0 0 313.254493C885.305171 933.676855 877.540324 941.441703 867.995947 941.441703z" fill="#272636"></path></g></g></svg>
