<?xml version="1.0" encoding="UTF-8"?><!DOCTYPE svg PUBLIC "-//W3C//DTD SVG 1.1//EN" "http://www.w3.org/Graphics/SVG/1.1/DTD/svg11.dtd"><svg xmlns="http://www.w3.org/2000/svg" xmlns:xlink="http://www.w3.org/1999/xlink"><symbol id="field-required" viewBox="0 0 200 200"><g class="transform-group"><g transform="scale(0.1953125, 0.1953125)"><path d="M723.776 440.512 536.768 512l186.944 71.488c47.616 18.368 75.136 33.024 82.496 44.032 7.296 11.008 11.008 22.016 11.008 33.024 0 29.376-5.568 45.888-16.704 49.472-11.072 3.712-22.208 5.504-33.28 5.504-11.2 0-22.272-2.752-33.344-8.256-11.136-5.504-24.064-13.76-38.848-24.768L523.072 528.512l38.912 230.976c3.648 11.008 5.504 21.12 5.504 30.272 0 9.216 0 15.616 0 19.264 0 22.016-5.504 37.632-16.64 46.72C539.712 864.96 526.784 869.504 512 869.504c-11.328 0-23.552-3.648-36.8-11.008-13.248-7.296-19.776-23.808-19.776-49.472 0-7.296 0.96-14.656 2.816-22.016 1.92-7.296 2.816-16.512 2.816-27.52l45.184-230.976-175.232 153.984c-11.328 7.36-23.552 14.656-36.8 22.016-13.248 7.36-25.408 11.008-36.672 11.008-11.328 0-22.592-3.648-33.92-11.008-11.328-7.296-16.96-22.016-16.96-44.032 0-14.656 5.504-27.52 16.512-38.528s36.608-23.808 76.992-38.528L487.296 512 300.288 440.512C274.624 429.504 252.608 419.456 234.304 410.24c-18.368-9.152-27.52-24.768-27.52-46.72 0-18.304 5.504-32.064 16.576-41.28C234.496 313.152 245.504 308.48 256.704 308.48c11.072 0 23.104 2.752 36.096 8.256 12.864 5.504 24.896 13.76 36.096 24.768l172.032 153.984L462.08 264.512c0-11.008-0.96-20.096-2.816-27.52-1.92-7.296-2.752-14.656-2.752-22.016 0-14.656 5.504-28.352 16.64-41.28C484.288 160.96 497.28 154.496 512 154.496c22.656 0 37.568 7.36 45.248 22.016 7.488 14.656 11.328 27.52 11.328 38.528 0 7.36 0 15.616 0 24.768 0 9.216-1.92 17.408-5.696 24.768L517.696 495.488l175.168-153.984c15.04-14.656 28.16-23.808 39.552-27.52 11.328-3.648 22.592-5.504 33.92-5.504 15.04 0 27.264 5.504 36.672 16.512S817.28 348.864 817.28 363.52c0 14.656-3.712 26.624-11.008 35.776C798.848 408.448 771.392 422.208 723.776 440.512z"/></g></g></symbol><symbol id="list-minus-circle" viewBox="0 0 24 24"><g id="unknown-4"><path d="M12,2C6.5,2,2,6.5,2,12s4.5,10,10,10c5.5,0,10-4.5,10-10C22,6.5,17.5,2,12,2z M12,20c-4.4,0-8-3.6-8-8c0-4.4,3.6-8,8-8c4.4,0,8,3.6,8,8C20,16.4,16.4,20,12,20z M8,13h8v-2H8V13z"/></g></symbol><symbol id="tingle-icon-symbols"><symbol id="field-required" viewBox="0 0 200 200"><g class="transform-group"><g transform="scale(0.1953125, 0.1953125)"><path d="M723.776 440.512 536.768 512l186.944 71.488c47.616 18.368 75.136 33.024 82.496 44.032 7.296 11.008 11.008 22.016 11.008 33.024 0 29.376-5.568 45.888-16.704 49.472-11.072 3.712-22.208 5.504-33.28 5.504-11.2 0-22.272-2.752-33.344-8.256-11.136-5.504-24.064-13.76-38.848-24.768L523.072 528.512l38.912 230.976c3.648 11.008 5.504 21.12 5.504 30.272 0 9.216 0 15.616 0 19.264 0 22.016-5.504 37.632-16.64 46.72C539.712 864.96 526.784 869.504 512 869.504c-11.328 0-23.552-3.648-36.8-11.008-13.248-7.296-19.776-23.808-19.776-49.472 0-7.296 0.96-14.656 2.816-22.016 1.92-7.296 2.816-16.512 2.816-27.52l45.184-230.976-175.232 153.984c-11.328 7.36-23.552 14.656-36.8 22.016-13.248 7.36-25.408 11.008-36.672 11.008-11.328 0-22.592-3.648-33.92-11.008-11.328-7.296-16.96-22.016-16.96-44.032 0-14.656 5.504-27.52 16.512-38.528s36.608-23.808 76.992-38.528L487.296 512 300.288 440.512C274.624 429.504 252.608 419.456 234.304 410.24c-18.368-9.152-27.52-24.768-27.52-46.72 0-18.304 5.504-32.064 16.576-41.28C234.496 313.152 245.504 308.48 256.704 308.48c11.072 0 23.104 2.752 36.096 8.256 12.864 5.504 24.896 13.76 36.096 24.768l172.032 153.984L462.08 264.512c0-11.008-0.96-20.096-2.816-27.52-1.92-7.296-2.752-14.656-2.752-22.016 0-14.656 5.504-28.352 16.64-41.28C484.288 160.96 497.28 154.496 512 154.496c22.656 0 37.568 7.36 45.248 22.016 7.488 14.656 11.328 27.52 11.328 38.528 0 7.36 0 15.616 0 24.768 0 9.216-1.92 17.408-5.696 24.768L517.696 495.488l175.168-153.984c15.04-14.656 28.16-23.808 39.552-27.52 11.328-3.648 22.592-5.504 33.92-5.504 15.04 0 27.264 5.504 36.672 16.512S817.28 348.864 817.28 363.52c0 14.656-3.712 26.624-11.008 35.776C798.848 408.448 771.392 422.208 723.776 440.512z"/></g></g></symbol><symbol id="tingle-icon-symbols"><symbol id="angle-down" viewBox="0 0 24 24"><g id="expand-more"><polygon points="16.6,8.6 12,13.2 7.4,8.6 6,10 12,16 18,10 "/></g></symbol><symbol id="angle-left" viewBox="0 0 24 24"><g id="chevron-left"><polygon points="15.4,7.4 14,6 8,12 14,18 15.4,16.6 10.8,12 "/></g></symbol><symbol id="angle-right" viewBox="0 0 24 24"><g id="chevron-right"><polygon points="10,6 8.6,7.4 13.2,12 8.6,16.6 10,18 16,12 "/></g></symbol><symbol id="angle-up" viewBox="0 0 24 24"><g id="expand-less"><polygon points="12,8 6,14 7.4,15.4 12,10.8 16.6,15.4 18,14 "/></g></symbol><symbol id="check-round" viewBox="0 0 20 20">
    <!-- Generator: Sketch 3.7.2 (28276) - http://www.bohemiancoding.com/sketch -->
    <title>check-round</title>
    <desc>Created with Sketch.</desc>
    
    <g id="Page-1" stroke="none" stroke-width="1" fill-rule="evenodd">
        <g id="check-round">
            <g id="check-circle">
                <path d="M10,0 C4.5,0 0,4.5 0,10 C0,15.5 4.5,20 10,20 C15.5,20 20,15.5 20,10 C20,4.5 15.5,0 10,0 L10,0 Z M8,15 L3,10 L4.4,8.6 L8,12.2 L15.6,4.6 L17,6 L8,15 L8,15 Z" id="Shape"/>
            </g>
        </g>
    </g>
</symbol><symbol id="check" viewBox="0 0 24 24"><g id="check"><polygon points="9,16.2 4.8,12 3.4,13.4 9,19 21,7 19.6,5.6 "/></g></symbol><symbol id="cross-round" viewBox="0 0 24 24"><g id="cancel"><path d="M12,2C6.5,2,2,6.5,2,12s4.5,10,10,10c5.5,0,10-4.5,10-10S17.5,2,12,2z M17,15.6L15.6,17L12,13.4L8.4,17L7,15.6l3.6-3.6L7,8.4L8.4,7l3.6,3.6L15.6,7L17,8.4L13.4,12L17,15.6z"/></g></symbol><symbol id="cross" viewBox="0 0 24 24"><g id="clear"><polygon points="19,6.4 17.6,5 12,10.6 6.4,5 5,6.4 10.6,12 5,17.6 6.4,19 12,13.4 17.6,19 19,17.6 13.4,12 "/></g></symbol><symbol id="empty-circle" viewBox="0 0 24 24">
<path d="M12,2C6.5,2,2,6.5,2,12s4.5,10,10,10s10-4.5,10-10S17.5,2,12,2z M12,20c-4.4,0-8-3.6-8-8s3.6-8,8-8s8,3.6,8,8S16.4,20,12,20
	z"/>
</symbol><symbol id="info-circle" viewBox="0 0 24 24"><g id="info-outline"><path d="M11,17h2v-6h-2V17z M12,2C6.5,2,2,6.5,2,12s4.5,10,10,10c5.5,0,10-4.5,10-10S17.5,2,12,2z M12,20c-4.4,0-8-3.6-8-8s3.6-8,8-8c4.4,0,8,3.6,8,8S16.4,20,12,20z M11,9h2V7h-2V9z"/></g></symbol><symbol id="info-round" viewBox="0 0 24 24"><g id="info"><path d="M12,2C6.5,2,2,6.5,2,12s4.5,10,10,10c5.5,0,10-4.5,10-10S17.5,2,12,2z M13,17h-2v-6h2V17z M13,9h-2V7h2V9z"/></g></symbol><symbol id="map" viewBox="0 0 24 24"><g id="place"><path d="M12,2C8.1,2,5,5.1,5,9c0,5.2,7,13,7,13s7-7.8,7-13C19,5.1,15.9,2,12,2z M12,11.5c-1.4,0-2.5-1.1-2.5-2.5s1.1-2.5,2.5-2.5c1.4,0,2.5,1.1,2.5,2.5S13.4,11.5,12,11.5z"/></g></symbol><symbol id="minus-circle" viewBox="0 0 24 24"><g id="unknown-4"><path d="M12,2C6.5,2,2,6.5,2,12s4.5,10,10,10c5.5,0,10-4.5,10-10C22,6.5,17.5,2,12,2z M12,20c-4.4,0-8-3.6-8-8c0-4.4,3.6-8,8-8c4.4,0,8,3.6,8,8C20,16.4,16.4,20,12,20z M8,13h8v-2H8V13z"/></g></symbol><symbol id="minus-round" viewBox="0 0 24 24"><g id="remove-circle"><path d="M12,2C6.5,2,2,6.5,2,12s4.5,10,10,10c5.5,0,10-4.5,10-10S17.5,2,12,2z M17,13H7v-2h10V13z"/></g></symbol><symbol id="note-round" viewBox="0 0 24 24"><g id="error"><path d="M12,2C6.5,2,2,6.5,2,12s4.5,10,10,10c5.5,0,10-4.5,10-10S17.5,2,12,2z M13,17h-2v-2h2V17z M13,13h-2V7h2V13z"/></g></symbol><symbol id="pen" viewBox="0 0 24 24"><g id="create"><path d="M3,17.2V21h3.8L17.8,9.9l-3.8-3.8L3,17.2z M20.7,7c0.4-0.4,0.4-1,0-1.4l-2.3-2.3c-0.4-0.4-1-0.4-1.4,0l-1.8,1.8l3.8,3.8L20.7,7z"/></g></symbol><symbol id="plus-circle" viewBox="0 0 24 24"><g id="unknown-3"><path d="M13,8h-2v3H8v2h3v3h2v-3h3v-2h-3V8z M12,2C6.5,2,2,6.5,2,12s4.5,10,10,10c5.5,0,10-4.5,10-10C22,6.5,17.5,2,12,2z M12,20c-4.4,0-8-3.6-8-8c0-4.4,3.6-8,8-8c4.4,0,8,3.6,8,8C20,16.4,16.4,20,12,20z"/></g></symbol><symbol id="plus-round" viewBox="0 0 24 24"><g id="add-circle"><path d="M12,2C6.5,2,2,6.5,2,12s4.5,10,10,10c5.5,0,10-4.5,10-10S17.5,2,12,2z M17,13h-4v4h-2v-4H7v-2h4V7h2v4h4V13z"/></g></symbol><symbol id="plus" viewBox="0 0 24 24"><g id="add"><path d="M19,13h-6v6h-2v-6H5v-2h6V5h2v6h6V13z"/></g></symbol><symbol id="search" viewBox="0 0 24 24"><g id="search"><path d="M15.5,14h-0.8l-0.3-0.3c1-1.1,1.6-2.6,1.6-4.2C16,5.9,13.1,3,9.5,3C5.9,3,3,5.9,3,9.5S5.9,16,9.5,16c1.6,0,3.1-0.6,4.2-1.6l0.3,0.3v0.8l5,5l1.5-1.5L15.5,14z M9.5,14C7,14,5,12,5,9.5S7,5,9.5,5C12,5,14,7,14,9.5S12,14,9.5,14z"/></g></symbol><symbol id="setting" viewBox="0 0 24 24"><g id="settings"><path d="M19.4,13c0-0.3,0.1-0.6,0.1-1s0-0.7-0.1-1l2.1-1.7c0.2-0.2,0.2-0.4,0.1-0.6l-2-3.5C19.5,5.1,19.3,5,19,5.1l-2.5,1c-0.5-0.4-1.1-0.7-1.7-1l-0.4-2.6C14.5,2.2,14.2,2,14,2h-4C9.8,2,9.5,2.2,9.5,2.4L9.1,5.1C8.5,5.3,8,5.7,7.4,6.1L5,5.1C4.7,5,4.5,5.1,4.3,5.3l-2,3.5C2.2,8.9,2.3,9.2,2.5,9.4L4.6,11c0,0.3-0.1,0.6-0.1,1s0,0.7,0.1,1l-2.1,1.7c-0.2,0.2-0.2,0.4-0.1,0.6l2,3.5C4.5,18.9,4.7,19,5,18.9l2.5-1c0.5,0.4,1.1,0.7,1.7,1l0.4,2.6c0,0.2,0.2,0.4,0.5,0.4h4c0.2,0,0.5-0.2,0.5-0.4l0.4-2.6c0.6-0.3,1.2-0.6,1.7-1l2.5,1c0.2,0.1,0.5,0,0.6-0.2l2-3.5c0.1-0.2,0.1-0.5-0.1-0.6L19.4,13z M12,15.5c-1.9,0-3.5-1.6-3.5-3.5s1.6-3.5,3.5-3.5s3.5,1.6,3.5,3.5S13.9,15.5,12,15.5z"/></g></symbol><symbol id="star" viewBox="0 0 24 24"><g id="star"><polygon points="12,17.273 18.18,21 16.545,13.971 22,9.244 14.809,8.627 12,2 9.191,8.627 2,9.244 7.455,13.971 5.82,21 "/></g></symbol><symbol id="time" viewBox="0 0 24 24"><g id="schedule"><path fill-opacity="0.9" d="M12,2C6.5,2,2,6.5,2,12s4.5,10,10,10c5.5,0,10-4.5,10-10S17.5,2,12,2z M12,20c-4.4,0-8-3.6-8-8s3.6-8,8-8c4.4,0,8,3.6,8,8S16.4,20,12,20z"/><polygon fill-opacity="0.9" points="12.5,7 11,7 11,13 16.2,16.2 17,14.9 12.5,12.2 "/></g></symbol><symbol id="user" viewBox="0 0 24 24"><g id="person"><path d="M12,12c2.2,0,4-1.8,4-4c0-2.2-1.8-4-4-4C9.8,4,8,5.8,8,8C8,10.2,9.8,12,12,12z M12,14c-2.7,0-8,1.3-8,4v2h16v-2C20,15.3,14.7,14,12,14z"/></g></symbol></symbol><symbol id="list-minus-circle" viewBox="0 0 24 24"><g id="unknown-4"><path d="M12,2C6.5,2,2,6.5,2,12s4.5,10,10,10c5.5,0,10-4.5,10-10C22,6.5,17.5,2,12,2z M12,20c-4.4,0-8-3.6-8-8c0-4.4,3.6-8,8-8c4.4,0,8,3.6,8,8C20,16.4,16.4,20,12,20z M8,13h8v-2H8V13z"/></g></symbol><symbol id="note-message" viewBox="0 0 16 16"><g class="transform-group"><g transform="scale(0.015625, 0.015625)"><path d="M511.736499 64.4775c-246.457158 0-447.121364 200.541409-447.121364 447.121364 0 246.580978 200.63146 447.088618 447.121364 447.088618 246.553349 0 447.121364-200.506617 447.121364-447.088618C958.858886 265.018909 758.316453 64.4775 511.736499 64.4775L511.736499 64.4775zM511.736499 902.715703c-215.72625 0-391.178237-175.48064-391.178237-391.149585 0-215.790718 175.450964-391.208936 391.178237-391.208936 215.72625 0 391.214053 175.417195 391.214053 391.208936C902.977157 727.233016 727.463772 902.715703 511.736499 902.715703L511.736499 902.715703zM552.385291 451.746708l-81.297584 0c-11.235902 0-20.319791 9.106402-20.319791 20.319791l0 43.073005 0 14.3488 0 189.726086c0 11.213389 9.091052 20.319791 20.320814 20.319791l81.297584 0c11.234879 0 20.319791-9.106402 20.319791-20.319791L572.706105 529.488303l0-14.3488 0-43.073005C572.706105 460.852086 563.615053 451.746708 552.385291 451.746708zM447.352119 348.014158c0 35.558867 28.826536 64.385403 64.384379 64.385403 35.55989 0 64.386426-28.826536 64.386426-64.385403s-28.826536-64.385403-64.386426-64.385403C476.177632 283.628756 447.352119 312.455291 447.352119 348.014158L447.352119 348.014158z"/></g></g></symbol><symbol id="note-warning" viewBox="0 0 16 16"><g class="transform-group"><g transform="scale(0.015625, 0.015625)"><path d="M512 764.224c-25.408 0-46.016-20.544-46.016-45.952 0-25.408 20.608-46.016 46.016-46.016s46.016 20.544 46.016 46.016C558.016 743.68 537.408 764.224 512 764.224L512 764.224 512 764.224zM512 764.224M512 611.648c-21.248 0-38.528-17.28-38.528-38.528L473.472 284.992c0-21.248 17.28-38.528 38.528-38.528s38.528 17.28 38.528 38.528l0 288.128C550.528 594.368 533.248 611.648 512 611.648L512 611.648zM512 611.648M512 64C264.576 64 64 264.576 64 512s200.576 448 448 448 448-200.576 448-448S759.424 64 512 64L512 64zM512 900.224c-214.08 0-388.288-174.144-388.288-388.224S297.92 123.776 512 123.776 900.288 297.856 900.288 512 726.08 900.224 512 900.224L512 900.224zM512 900.224"/></g></g></symbol><symbol id="toast-error" viewBox="0 0 24 24"><g id="clear"><polygon points="19,6.4 17.6,5 12,10.6 6.4,5 5,6.4 10.6,12 5,17.6 6.4,19 12,13.4 17.6,19 19,17.6 13.4,12 "/></g></symbol><symbol id="toast-fail" viewBox="0 0 108.364 108.364">
<g>
	<g>
		<path d="M54.182,0C24.258,0,0,24.258,0,54.182c0,29.924,24.258,54.183,54.182,54.183c29.923,0,54.182-24.259,54.182-54.183
			C108.364,24.258,84.105,0,54.182,0z M68.713,33.622c3.424,0,6.201,2.777,6.201,6.201c0,3.426-2.777,6.203-6.201,6.203
			c-3.423,0-6.203-2.777-6.203-6.203C62.51,36.399,65.29,33.622,68.713,33.622z M40.594,33.622c3.423,0,6.2,2.777,6.2,6.201
			c0,3.426-2.777,6.203-6.2,6.203c-3.423,0-6.201-2.777-6.201-6.203C34.393,36.399,37.17,33.622,40.594,33.622z M76.607,79.098
			c-1.521,0.66-3.286-0.041-3.944-1.562c-2.894-6.689-9.731-11.012-17.421-11.012c-7.868,0-14.747,4.32-17.523,11.005
			c-0.479,1.153-1.596,1.85-2.771,1.85c-0.384,0-0.773-0.073-1.15-0.229c-1.53-0.637-2.255-2.393-1.62-3.922
			c3.71-8.932,12.764-14.703,23.064-14.703c10.084,0,19.084,5.742,22.928,14.63C78.828,76.674,78.128,78.439,76.607,79.098z"/>
	</g>
</g>
<g>
</g>
<g>
</g>
<g>
</g>
<g>
</g>
<g>
</g>
<g>
</g>
<g>
</g>
<g>
</g>
<g>
</g>
<g>
</g>
<g>
</g>
<g>
</g>
<g>
</g>
<g>
</g>
<g>
</g>
</symbol><symbol id="toast-loading" viewBox="0 0 399.389 399.389">
<g>
	<path d="M340.896,58.489C303.18,20.773,253.031,0.001,199.693,0.001c-53.34,0-103.487,20.771-141.204,58.488
		C20.772,96.207,0,146.355,0,199.694c0,53.34,20.772,103.489,58.49,141.206c37.717,37.717,87.864,58.488,141.204,58.488
		c53.339,0,103.486-20.771,141.205-58.488c37.717-37.717,58.49-87.865,58.49-141.206C399.387,146.355,378.613,96.207,340.896,58.489
		z M77.457,199.694c0-67.401,54.835-122.236,122.236-122.236S321.93,132.293,321.93,199.694s-54.836,122.237-122.237,122.237
		S77.457,267.096,77.457,199.694z M328.061,328.063c-34.289,34.287-79.877,53.17-128.368,53.17v-41.147
		c77.413,0,140.389-62.979,140.389-140.391c0-77.412-62.979-140.391-140.389-140.391c-4.593,0-9.134,0.229-13.615,0.662V18.655
		c4.508-0.332,9.049-0.5,13.615-0.5c48.491,0,94.079,18.883,128.368,53.171c34.289,34.289,53.172,79.878,53.172,128.368
		C381.232,248.187,362.35,293.776,328.061,328.063z"/>
</g>
<g>
</g>
<g>
</g>
<g>
</g>
<g>
</g>
<g>
</g>
<g>
</g>
<g>
</g>
<g>
</g>
<g>
</g>
<g>
</g>
<g>
</g>
<g>
</g>
<g>
</g>
<g>
</g>
<g>
</g>
</symbol><symbol id="toast-success" viewBox="0 0 24 24"><g id="check"><polygon points="9,16.2 4.8,12 3.4,13.4 9,19 21,7 19.6,5.6 "/></g></symbol></symbol><symbol id="note-message" viewBox="0 0 16 16"><g class="transform-group"><g transform="scale(0.015625, 0.015625)"><path d="M511.736499 64.4775c-246.457158 0-447.121364 200.541409-447.121364 447.121364 0 246.580978 200.63146 447.088618 447.121364 447.088618 246.553349 0 447.121364-200.506617 447.121364-447.088618C958.858886 265.018909 758.316453 64.4775 511.736499 64.4775L511.736499 64.4775zM511.736499 902.715703c-215.72625 0-391.178237-175.48064-391.178237-391.149585 0-215.790718 175.450964-391.208936 391.178237-391.208936 215.72625 0 391.214053 175.417195 391.214053 391.208936C902.977157 727.233016 727.463772 902.715703 511.736499 902.715703L511.736499 902.715703zM552.385291 451.746708l-81.297584 0c-11.235902 0-20.319791 9.106402-20.319791 20.319791l0 43.073005 0 14.3488 0 189.726086c0 11.213389 9.091052 20.319791 20.320814 20.319791l81.297584 0c11.234879 0 20.319791-9.106402 20.319791-20.319791L572.706105 529.488303l0-14.3488 0-43.073005C572.706105 460.852086 563.615053 451.746708 552.385291 451.746708zM447.352119 348.014158c0 35.558867 28.826536 64.385403 64.384379 64.385403 35.55989 0 64.386426-28.826536 64.386426-64.385403s-28.826536-64.385403-64.386426-64.385403C476.177632 283.628756 447.352119 312.455291 447.352119 348.014158L447.352119 348.014158z"/></g></g></symbol><symbol id="note-warning" viewBox="0 0 16 16"><g class="transform-group"><g transform="scale(0.015625, 0.015625)"><path d="M512 764.224c-25.408 0-46.016-20.544-46.016-45.952 0-25.408 20.608-46.016 46.016-46.016s46.016 20.544 46.016 46.016C558.016 743.68 537.408 764.224 512 764.224L512 764.224 512 764.224zM512 764.224M512 611.648c-21.248 0-38.528-17.28-38.528-38.528L473.472 284.992c0-21.248 17.28-38.528 38.528-38.528s38.528 17.28 38.528 38.528l0 288.128C550.528 594.368 533.248 611.648 512 611.648L512 611.648zM512 611.648M512 64C264.576 64 64 264.576 64 512s200.576 448 448 448 448-200.576 448-448S759.424 64 512 64L512 64zM512 900.224c-214.08 0-388.288-174.144-388.288-388.224S297.92 123.776 512 123.776 900.288 297.856 900.288 512 726.08 900.224 512 900.224L512 900.224zM512 900.224"/></g></g></symbol><symbol id="rate-star" viewBox="0 0 46.354 46.354">
<g>
	<path d="M21.57,2.049c0.303-0.612,0.927-1,1.609-1c0.682,0,1.307,0.388,1.609,1l5.771,11.695c0.261,0.529,0.767,0.896,1.352,0.981
		L44.817,16.6c0.677,0.098,1.237,0.572,1.448,1.221c0.211,0.649,0.035,1.363-0.454,1.839l-9.338,9.104
		c-0.423,0.412-0.616,1.006-0.517,1.588l2.204,12.855c0.114,0.674-0.161,1.354-0.715,1.756c-0.553,0.4-1.284,0.453-1.89,0.137
		l-11.544-6.07c-0.522-0.275-1.147-0.275-1.67,0l-11.544,6.069c-0.604,0.317-1.337,0.265-1.89-0.136
		c-0.553-0.401-0.829-1.082-0.714-1.756l2.204-12.855c0.1-0.582-0.094-1.176-0.517-1.588L0.542,19.66
		c-0.489-0.477-0.665-1.19-0.454-1.839c0.211-0.649,0.772-1.123,1.449-1.221l12.908-1.875c0.584-0.085,1.09-0.452,1.351-0.982
		L21.57,2.049z"/>
</g>
</symbol><symbol id="loading" viewBox="0 0 100 100">
    <rect x="0" y="0" width="100" height="100" class="bk"/>
    <rect x="46.5" y="40" width="7" height="20" rx="5" ry="5" fill="#000000" transform="rotate(0 50 50) translate(0 -30)">
        <animate attributeName="opacity" from="1" to="0" dur="1s" begin="0s" repeatCount="indefinite"/>
    </rect>
    <rect x="46.5" y="40" width="7" height="20" rx="5" ry="5" fill="#000000" transform="rotate(30 50 50) translate(0 -30)">
        <animate attributeName="opacity" from="1" to="0" dur="1s" begin="0.08333333333333333s" repeatCount="indefinite"/>
    </rect>
    <rect x="46.5" y="40" width="7" height="20" rx="5" ry="5" fill="#000000" transform="rotate(60 50 50) translate(0 -30)">
        <animate attributeName="opacity" from="1" to="0" dur="1s" begin="0.16666666666666666s" repeatCount="indefinite"/>
    </rect>
    <rect x="46.5" y="40" width="7" height="20" rx="5" ry="5" fill="#000000" transform="rotate(90 50 50) translate(0 -30)">
        <animate attributeName="opacity" from="1" to="0" dur="1s" begin="0.25s" repeatCount="indefinite"/>
    </rect>
    <rect x="46.5" y="40" width="7" height="20" rx="5" ry="5" fill="#000000" transform="rotate(120 50 50) translate(0 -30)">
        <animate attributeName="opacity" from="1" to="0" dur="1s" begin="0.3333333333333333s" repeatCount="indefinite"/>
    </rect>
    <rect x="46.5" y="40" width="7" height="20" rx="5" ry="5" fill="#000000" transform="rotate(150 50 50) translate(0 -30)">
        <animate attributeName="opacity" from="1" to="0" dur="1s" begin="0.4166666666666667s" repeatCount="indefinite"/>
    </rect>
    <rect x="46.5" y="40" width="7" height="20" rx="5" ry="5" fill="#000000" transform="rotate(180 50 50) translate(0 -30)">
        <animate attributeName="opacity" from="1" to="0" dur="1s" begin="0.5s" repeatCount="indefinite"/>
    </rect>
    <rect x="46.5" y="40" width="7" height="20" rx="5" ry="5" fill="#000000" transform="rotate(210 50 50) translate(0 -30)">
        <animate attributeName="opacity" from="1" to="0" dur="1s" begin="0.5833333333333334s" repeatCount="indefinite"/>
    </rect>
    <rect x="46.5" y="40" width="7" height="20" rx="5" ry="5" fill="#000000" transform="rotate(240 50 50) translate(0 -30)">
        <animate attributeName="opacity" from="1" to="0" dur="1s" begin="0.6666666666666666s" repeatCount="indefinite"/>
    </rect>
    <rect x="46.5" y="40" width="7" height="20" rx="5" ry="5" fill="#000000" transform="rotate(270 50 50) translate(0 -30)">
        <animate attributeName="opacity" from="1" to="0" dur="1s" begin="0.75s" repeatCount="indefinite"/>
    </rect>
    <rect x="46.5" y="40" width="7" height="20" rx="5" ry="5" fill="#000000" transform="rotate(300 50 50) translate(0 -30)">
        <animate attributeName="opacity" from="1" to="0" dur="1s" begin="0.8333333333333334s" repeatCount="indefinite"/>
    </rect>
    <rect x="46.5" y="40" width="7" height="20" rx="5" ry="5" fill="#000000" transform="rotate(330 50 50) translate(0 -30)">
        <animate attributeName="opacity" from="1" to="0" dur="1s" begin="0.9166666666666666s" repeatCount="indefinite"/>
    </rect>
</symbol><symbol id="angle-down" viewBox="0 0 24 24"><g id="expand-more"><polygon points="16.6,8.6 12,13.2 7.4,8.6 6,10 12,16 18,10 "/></g></symbol><symbol id="angle-left" viewBox="0 0 24 24"><g id="chevron-left"><polygon points="15.4,7.4 14,6 8,12 14,18 15.4,16.6 10.8,12 "/></g></symbol><symbol id="angle-right" viewBox="0 0 24 24"><g id="chevron-right"><polygon points="10,6 8.6,7.4 13.2,12 8.6,16.6 10,18 16,12 "/></g></symbol><symbol id="angle-up" viewBox="0 0 24 24"><g id="expand-less"><polygon points="12,8 6,14 7.4,15.4 12,10.8 16.6,15.4 18,14 "/></g></symbol><symbol id="check-round" viewBox="0 0 24 24"><g id="check-circle"><path d="M12,2C6.5,2,2,6.5,2,12c0,5.5,4.5,10,10,10c5.5,0,10-4.5,10-10C22,6.5,17.5,2,12,2z M10,17l-5-5l1.4-1.4l3.6,3.6l7.6-7.6L19,8L10,17z"/></g></symbol><symbol id="check" viewBox="0 0 24 24"><g id="check"><polygon points="9,16.2 4.8,12 3.4,13.4 9,19 21,7 19.6,5.6 "/></g></symbol><symbol id="cross-round" viewBox="0 0 24 24"><g id="cancel"><path d="M12,2C6.5,2,2,6.5,2,12s4.5,10,10,10c5.5,0,10-4.5,10-10S17.5,2,12,2z M17,15.6L15.6,17L12,13.4L8.4,17L7,15.6l3.6-3.6L7,8.4L8.4,7l3.6,3.6L15.6,7L17,8.4L13.4,12L17,15.6z"/></g></symbol><symbol id="cross" viewBox="0 0 24 24"><g id="clear"><polygon points="19,6.4 17.6,5 12,10.6 6.4,5 5,6.4 10.6,12 5,17.6 6.4,19 12,13.4 17.6,19 19,17.6 13.4,12 "/></g></symbol><symbol id="direction-bottom" viewBox="0 0 32 32">
    <g>
        <g transform="translate(-649.000000, -4634.000000)">
            <g id="Group-46" transform="translate(348.000000, 4634.000000)">
                <g id="bottom" transform="translate(301.000000, 0.000000)">
                    <g id="Group-4">
                        <g transform="translate(3.000000, 8.000000)">
                            <polygon id="Combined-Shape" points="13 14.7279221 0.272077939 2 1.6862915 0.585786438 13 11.8994949 24.3137085 0.585786438 25.7279221 2"/>
                        </g>
                    </g>
                </g>
            </g>
        </g>
    </g>
</symbol><symbol id="direction-left" viewBox="0 0 32 32">
    <g>
        <g id="&#x54C1;&#x724C;-&#x89C4;&#x8303;-&#x56FE;&#x6807;-copy" transform="translate(-448.000000, -4634.000000)">
            <g id="Group-46" transform="translate(348.000000, 4634.000000)">
                <g id="left" transform="translate(100.000000, 0.000000)">
                    <g id="Group-4">
                        <g transform="translate(8.000000, 3.000000)">
                            <path d="M22,5 L22,22 L20,22 L20,6 L4,6 L4,4 L22,4 L22,5 Z" id="Combined-Shape" transform="translate(13.000000, 13.000000) scale(-1, 1) rotate(45.000000) translate(-13.000000, -13.000000) "/>
                        </g>
                    </g>
                </g>
            </g>
        </g>
    </g>
</symbol><symbol id="direction-right" viewBox="0 0 32 32">
    <g>
        <g transform="translate(-350.000000, -4634.000000)">
            <g id="Group-46" transform="translate(348.000000, 4634.000000)">
                <g id="right">
                    <g id="Group-4">
                        <g transform="translate(0.000000, 3.000000)">
                            <path d="M22,5 L22,22 L20,22 L20,6 L4,6 L4,4 L22,4 L22,5 Z" id="Combined-Shape" transform="translate(13.000000, 13.000000) rotate(45.000000) translate(-13.000000, -13.000000) "/>
                        </g>
                    </g>
                </g>
            </g>
        </g>
    </g>
</symbol><symbol id="direction-top" viewBox="0 0 32 32">
    <g>
        <g transform="translate(-549.000000, -4634.000000)">
            <g id="Group-46" transform="translate(348.000000, 4634.000000)">
                <g id="left-copy" transform="translate(201.000000, 0.000000)">
                    <g id="left">
                        <g id="Group-4" transform="translate(3.000000, 8.000000)">
                            <path d="M22,5 L22,22 L20,22 L20,6 L4,6 L4,4 L22,4 L22,5 Z" id="Combined-Shape" transform="translate(13.000000, 13.000000) scale(-1, 1) rotate(-45.000000) translate(-13.000000, -13.000000) "/>
                        </g>
                    </g>
                </g>
            </g>
        </g>
    </g>
</symbol><symbol id="face-sad-full" viewBox="0 0 32 32">
    <g>
        <g transform="translate(-649.000000, -3080.000000)">
            <g id="Group-29-Copy-4" transform="translate(631.000000, 3080.000000)">
                <g id="&#x7B5B;&#x9009;" transform="translate(18.000000, 0.000000)">
                    <g transform="translate(2.000000, 2.000000)" id="Combined-Shape">
                        <path d="M14,0 C21.7233333,0 28,6.27666667 28,14 C28,21.7233333 21.7233333,28 14,28 C6.27666667,28 0,21.7233333 0,14 C0,6.27666667 6.27666667,0 14,0 Z M18,11.5 C18,12.3284271 18.6715729,13 19.5,13 C20.3284271,13 21,12.3284271 21,11.5 C21,10.6715729 20.3284271,10 19.5,10 C18.6715729,10 18,10.6715729 18,11.5 Z M7,11.5 C7,12.3284271 7.67157288,13 8.5,13 C9.32842712,13 10,12.3284271 10,11.5 C10,10.6715729 9.32842712,10 8.5,10 C7.67157288,10 7,10.6715729 7,11.5 Z M18.92,20.8414703 C19.38,20.5414703 19.52,19.9214703 19.22,19.4614703 C18.08,17.6614703 16.12,16.6014703 14,16.6014703 C11.88,16.6014703 9.92,17.6614703 8.78,19.4614703 C8.48,19.9214703 8.62,20.5414703 9.08,20.8414703 C9.54,21.1414703 10.16,21.0014703 10.46,20.5414703 C11.24,19.3214703 12.56,18.6014703 14,18.6014703 C15.44,18.6014703 16.76,19.3214703 17.54,20.5414703 C17.84,21.0014703 18.46,21.1414703 18.92,20.8414703 Z"/>
                    </g>
                </g>
            </g>
        </g>
    </g>
</symbol><symbol id="face-sad-line" viewBox="0 0 32 32">
    <g>
        <g transform="translate(-549.000000, -3080.000000)">
            <g id="Group-29-Copy-3" transform="translate(531.000000, 3080.000000)">
                <g id="&#x7B5B;&#x9009;" transform="translate(18.000000, 0.000000)">
                    <g transform="translate(2.000000, 2.000000)" id="Combined-Shape">
                        <path d="M14,0 C21.7233333,0 28,6.27666667 28,14 C28,21.7233333 21.7233333,28 14,28 C6.27666667,28 0,21.7233333 0,14 C0,6.27666667 6.27666667,0 14,0 Z M14,26 C20.624,26 26,20.624 26,14 C26,7.376 20.624,2 14,2 C7.376,2 2,7.376 2,14 C2,20.624 7.376,26 14,26 Z M18,11.5 C18,10.6715729 18.6715729,10 19.5,10 C20.3284271,10 21,10.6715729 21,11.5 C21,12.3284271 20.3284271,13 19.5,13 C18.6715729,13 18,12.3284271 18,11.5 Z M7,11.5 C7,10.6715729 7.67157288,10 8.5,10 C9.32842712,10 10,10.6715729 10,11.5 C10,12.3284271 9.32842712,13 8.5,13 C7.67157288,13 7,12.3284271 7,11.5 Z M18.92,20.8414703 C18.46,21.1414703 17.84,21.0014703 17.54,20.5414703 C16.76,19.3214703 15.44,18.6014703 14,18.6014703 C12.56,18.6014703 11.24,19.3214703 10.46,20.5414703 C10.16,21.0014703 9.54,21.1414703 9.08,20.8414703 C8.62,20.5414703 8.48,19.9214703 8.78,19.4614703 C9.92,17.6614703 11.88,16.6014703 14,16.6014703 C16.12,16.6014703 18.08,17.6614703 19.22,19.4614703 C19.52,19.9214703 19.38,20.5414703 18.92,20.8414703 Z"/>
                    </g>
                </g>
            </g>
        </g>
    </g>
</symbol><symbol id="face-smile-full" viewBox="0 0 32 32">
    <g>
        <g id="&#x54C1;&#x724C;-&#x89C4;&#x8303;-&#x56FE;&#x6807;-copy" transform="translate(-450.000000, -3080.000000)">
            <g id="Group-29-Copy-2" transform="translate(438.000000, 3080.000000)">
                <g id="&#x7B5B;&#x9009;" transform="translate(12.000000, 0.000000)">
                    <g transform="translate(2.000000, 2.000000)" id="Combined-Shape">
                        <path d="M14,0 C21.7233333,0 28,6.27666667 28,14 C28,21.7233333 21.7233333,28 14,28 C6.27666667,28 0,21.7233333 0,14 C0,6.27666667 6.27666667,0 14,0 Z M18,11.5 C18,12.3284271 18.6715729,13 19.5,13 C20.3284271,13 21,12.3284271 21,11.5 C21,10.6715729 20.3284271,10 19.5,10 C18.6715729,10 18,10.6715729 18,11.5 Z M7,11.5 C7,12.3284271 7.67157288,13 8.5,13 C9.32842712,13 10,12.3284271 10,11.5 C10,10.6715729 9.32842712,10 8.5,10 C7.67157288,10 7,10.6715729 7,11.5 Z M18.92,16.76 C18.46,16.46 17.84,16.6 17.54,17.06 C16.76,18.28 15.44,19 14,19 C12.56,19 11.24,18.28 10.46,17.06 C10.16,16.6 9.54,16.46 9.08,16.76 C8.62,17.06 8.48,17.68 8.78,18.14 C9.92,19.94 11.88,21 14,21 C16.12,21 18.08,19.94 19.22,18.14 C19.52,17.68 19.38,17.06 18.92,16.76 Z"/>
                    </g>
                </g>
            </g>
        </g>
    </g>
</symbol><symbol id="face-smile-line" viewBox="0 0 32 32">
    <g>
        <g transform="translate(-349.000000, -3080.000000)">
            <g id="Group-29-Copy" transform="translate(337.000000, 3080.000000)">
                <g id="&#x7B5B;&#x9009;" transform="translate(12.000000, 0.000000)">
                    <g transform="translate(2.000000, 2.000000)" id="Combined-Shape">
                        <path d="M14,0 C21.7233333,0 28,6.27666667 28,14 C28,21.7233333 21.7233333,28 14,28 C6.27666667,28 0,21.7233333 0,14 C0,6.27666667 6.27666667,0 14,0 Z M14,26 C20.624,26 26,20.624 26,14 C26,7.376 20.624,2 14,2 C7.376,2 2,7.376 2,14 C2,20.624 7.376,26 14,26 Z M18,11.5 C18,10.6715729 18.6715729,10 19.5,10 C20.3284271,10 21,10.6715729 21,11.5 C21,12.3284271 20.3284271,13 19.5,13 C18.6715729,13 18,12.3284271 18,11.5 Z M7,11.5 C7,10.6715729 7.67157288,10 8.5,10 C9.32842712,10 10,10.6715729 10,11.5 C10,12.3284271 9.32842712,13 8.5,13 C7.67157288,13 7,12.3284271 7,11.5 Z M18.92,16.76 C19.38,17.06 19.52,17.68 19.22,18.14 C18.08,19.94 16.12,21 14,21 C11.88,21 9.92,19.94 8.78,18.14 C8.48,17.68 8.62,17.06 9.08,16.76 C9.54,16.46 10.16,16.6 10.46,17.06 C11.24,18.28 12.56,19 14,19 C15.44,19 16.76,18.28 17.54,17.06 C17.84,16.6 18.46,16.46 18.92,16.76 Z"/>
                    </g>
                </g>
            </g>
        </g>
    </g>
</symbol><symbol id="info-circle" viewBox="0 0 24 24"><g id="info-outline"><path d="M11,17h2v-6h-2V17z M12,2C6.5,2,2,6.5,2,12s4.5,10,10,10c5.5,0,10-4.5,10-10S17.5,2,12,2z M12,20c-4.4,0-8-3.6-8-8s3.6-8,8-8c4.4,0,8,3.6,8,8S16.4,20,12,20z M11,9h2V7h-2V9z"/></g></symbol><symbol id="info-round" viewBox="0 0 24 24"><g id="info"><path d="M12,2C6.5,2,2,6.5,2,12s4.5,10,10,10c5.5,0,10-4.5,10-10S17.5,2,12,2z M13,17h-2v-6h2V17z M13,9h-2V7h2V9z"/></g></symbol><symbol id="map" viewBox="0 0 24 24"><g id="place"><path d="M12,2C8.1,2,5,5.1,5,9c0,5.2,7,13,7,13s7-7.8,7-13C19,5.1,15.9,2,12,2z M12,11.5c-1.4,0-2.5-1.1-2.5-2.5s1.1-2.5,2.5-2.5c1.4,0,2.5,1.1,2.5,2.5S13.4,11.5,12,11.5z"/></g></symbol><symbol id="minus-circle" viewBox="0 0 24 24"><g id="unknown-4"><path d="M12,2C6.5,2,2,6.5,2,12s4.5,10,10,10c5.5,0,10-4.5,10-10C22,6.5,17.5,2,12,2z M12,20c-4.4,0-8-3.6-8-8c0-4.4,3.6-8,8-8c4.4,0,8,3.6,8,8C20,16.4,16.4,20,12,20z M8,13h8v-2H8V13z"/></g></symbol><symbol id="minus-round" viewBox="0 0 24 24"><g id="remove-circle"><path d="M12,2C6.5,2,2,6.5,2,12s4.5,10,10,10c5.5,0,10-4.5,10-10S17.5,2,12,2z M17,13H7v-2h10V13z"/></g></symbol><symbol id="minus-thin" viewBox="0 0 32 32">
    <g>
        <g transform="translate(-449.000000, -3555.000000)">
            <g id="&#x5220;&#x51CF;-copy-2" transform="translate(449.000000, 3555.000000)">
                <g id="&#x5220;&#x51CF;">
                    <rect id="Combined-Shape" x="2" y="15" width="28" height="2"/>
                </g>
            </g>
        </g>
    </g>
</symbol><symbol id="note-round" viewBox="0 0 24 24"><g id="error"><path d="M12,2C6.5,2,2,6.5,2,12s4.5,10,10,10c5.5,0,10-4.5,10-10S17.5,2,12,2z M13,17h-2v-2h2V17z M13,13h-2V7h2V13z"/></g></symbol><symbol id="pen" viewBox="0 0 24 24"><g id="create"><path d="M3,17.2V21h3.8L17.8,9.9l-3.8-3.8L3,17.2z M20.7,7c0.4-0.4,0.4-1,0-1.4l-2.3-2.3c-0.4-0.4-1-0.4-1.4,0l-1.8,1.8l3.8,3.8L20.7,7z"/></g></symbol><symbol id="photo" viewBox="0 0 1024 1024"><path d="M896 268H705.62l-72.844-108.877c-7.923-11.82-21.213-19.08-35.443-19.08V140H426.666c-14.192 0-27.456 7.056-35.387 18.83L317.88 268H128c-23.564 0-42.668 19.104-42.668 42.667v554.667C85.332 888.9 104.436 908 128 908h768c23.564 0 42.666-19.1 42.666-42.666V310.667c0-23.563-19.1-42.667-42.667-42.667zm0 597.333H128V310.666h213.333l85.333-128h170.667l85.333 128H896v554.667zM512 396c-106.037 0-192 85.963-192 192 0 106.043 85.963 192 192 192 106.043 0 192-85.957 192-192 0-106.037-85.957-192-192-192zm0 341.333c-82.475 0-149.333-66.856-149.333-149.333 0-82.475 66.86-149.333 149.333-149.333 82.477 0 149.333 66.86 149.333 149.333 0 82.477-66.856 149.333-149.333 149.333zm213.333-362.666H832v42.667H725.333v-42.667z"/></symbol><symbol id="plus-circle" viewBox="0 0 24 24"><g id="unknown-3"><path d="M13,8h-2v3H8v2h3v3h2v-3h3v-2h-3V8z M12,2C6.5,2,2,6.5,2,12s4.5,10,10,10c5.5,0,10-4.5,10-10C22,6.5,17.5,2,12,2z M12,20c-4.4,0-8-3.6-8-8c0-4.4,3.6-8,8-8c4.4,0,8,3.6,8,8C20,16.4,16.4,20,12,20z"/></g></symbol><symbol id="plus-round" viewBox="0 0 24 24"><g id="add-circle"><path d="M12,2C6.5,2,2,6.5,2,12s4.5,10,10,10c5.5,0,10-4.5,10-10S17.5,2,12,2z M17,13h-4v4h-2v-4H7v-2h4V7h2v4h4V13z"/></g></symbol><symbol id="plus-thin" viewBox="0 0 32 32">
    <g>
        <g transform="translate(-350.000000, -3555.000000)">
            <g id="&#x589E;&#x52A0;-copy-2" transform="translate(350.000000, 3555.000000)">
                <g id="&#x589E;&#x52A0;">
                    <g transform="translate(15.000000, 8.000000)"/>
                    <path d="M17,15 L17,2 L15,2 L15,15 L2,15 L2,17 L15,17 L15,30 L17,30 L17,17 L30,17 L30,15 L17,15 Z" id="Combined-Shape"/>
                </g>
            </g>
        </g>
    </g>
</symbol><symbol id="plus" viewBox="0 0 24 24"><g id="add"><path d="M19,13h-6v6h-2v-6H5v-2h6V5h2v6h6V13z"/></g></symbol><symbol id="search" viewBox="0 0 24 24"><g id="search"><path d="M15.5,14h-0.8l-0.3-0.3c1-1.1,1.6-2.6,1.6-4.2C16,5.9,13.1,3,9.5,3C5.9,3,3,5.9,3,9.5S5.9,16,9.5,16c1.6,0,3.1-0.6,4.2-1.6l0.3,0.3v0.8l5,5l1.5-1.5L15.5,14z M9.5,14C7,14,5,12,5,9.5S7,5,9.5,5C12,5,14,7,14,9.5S12,14,9.5,14z"/></g></symbol><symbol id="setting" viewBox="0 0 24 24"><g id="settings"><path d="M19.4,13c0-0.3,0.1-0.6,0.1-1s0-0.7-0.1-1l2.1-1.7c0.2-0.2,0.2-0.4,0.1-0.6l-2-3.5C19.5,5.1,19.3,5,19,5.1l-2.5,1c-0.5-0.4-1.1-0.7-1.7-1l-0.4-2.6C14.5,2.2,14.2,2,14,2h-4C9.8,2,9.5,2.2,9.5,2.4L9.1,5.1C8.5,5.3,8,5.7,7.4,6.1L5,5.1C4.7,5,4.5,5.1,4.3,5.3l-2,3.5C2.2,8.9,2.3,9.2,2.5,9.4L4.6,11c0,0.3-0.1,0.6-0.1,1s0,0.7,0.1,1l-2.1,1.7c-0.2,0.2-0.2,0.4-0.1,0.6l2,3.5C4.5,18.9,4.7,19,5,18.9l2.5-1c0.5,0.4,1.1,0.7,1.7,1l0.4,2.6c0,0.2,0.2,0.4,0.5,0.4h4c0.2,0,0.5-0.2,0.5-0.4l0.4-2.6c0.6-0.3,1.2-0.6,1.7-1l2.5,1c0.2,0.1,0.5,0,0.6-0.2l2-3.5c0.1-0.2,0.1-0.5-0.1-0.6L19.4,13z M12,15.5c-1.9,0-3.5-1.6-3.5-3.5s1.6-3.5,3.5-3.5s3.5,1.6,3.5,3.5S13.9,15.5,12,15.5z"/></g></symbol><symbol id="star-full" viewBox="0 0 32 32">
    <g>
        <g transform="translate(-1149.000000, -3347.000000)">
            <g id="Group-42" transform="translate(335.000000, 3213.000000)">
                <g id="&#x661F;&#x6807;" transform="translate(814.000000, 134.000000)">
                    <g id="&#x8BC4;&#x661F;">
                        <g transform="translate(2.000000, 3.000000)" id="Shape">
                            <path d="M6.66937305,26 C7.00612612,26 7.34262521,25.9217713 7.6473126,25.765131 L13.9992686,22.4867308 L20.3522723,25.765131 C20.6580392,25.9217713 20.9948241,26 21.3303706,26 C21.7385254,26 22.1465532,25.8837065 22.4958467,25.6550143 C23.1267786,25.2373678 23.4495308,24.5213805 23.3231412,23.8070061 L22.085057,16.719917 L27.4260553,11.6085703 C27.9549167,11.1044795 28.1359131,10.3647894 27.8951031,9.69298287 C27.6535629,9.02233254 27.0319333,8.53269483 26.2836283,8.4254991 L18.9977358,7.38661638 L15.8301551,1.08540621 C15.4981325,0.423518965 14.7843062,0 13.9992686,0 C13.2168027,0 12.5025001,0.423518965 12.1691123,1.08540621 L9.00232545,7.38655557 L1.71611535,8.42543829 C0.967365983,8.53263402 0.345736387,9.02227173 0.104640616,9.69292205 C-0.136137665,10.3647286 0.0460334555,11.1044187 0.574609116,11.6085094 L5.91335335,16.7198562 L4.67491986,23.8070061 C4.55024471,24.5213805 4.87248886,25.2373678 5.50484934,25.6550143 C5.85274604,25.8837065 6.26074206,26 6.66937305,26 Z"/>
                        </g>
                    </g>
                </g>
            </g>
        </g>
    </g>
</symbol><symbol id="star-line" viewBox="0 0 32 32">
    <g>
        <g transform="translate(-449.000000, -3213.000000)">
            <g id="Group-42" transform="translate(335.000000, 3213.000000)">
                <g id="&#x661F;&#x6807;" transform="translate(114.000000, 0.000000)">
                    <g id="&#x8BC4;&#x661F;">
                        <g transform="translate(2.000000, 3.000000)" id="Shape">
                            <path d="M6.66937305,26 C7.00612612,26 7.34262521,25.9217713 7.6473126,25.765131 L13.9992686,22.4867308 L20.3522723,25.765131 C20.6580392,25.9217713 20.9948241,26 21.3303706,26 C21.7385254,26 22.1465532,25.8837065 22.4958467,25.6550143 C23.1267786,25.2373678 23.4495308,24.5213805 23.3231412,23.8070061 L22.085057,16.719917 L27.4260553,11.6085703 C27.9549167,11.1044795 28.1359131,10.3647894 27.8951031,9.69298287 C27.6535629,9.02233254 27.0319333,8.53269483 26.2836283,8.4254991 L18.9977358,7.38661638 L15.8301551,1.08540621 C15.4981325,0.423518965 14.7843062,0 13.9992686,0 C13.2168027,0 12.5025001,0.423518965 12.1691123,1.08540621 L9.00232545,7.38655557 L1.71611535,8.42543829 C0.967365983,8.53263402 0.345736387,9.02227173 0.104640616,9.69292205 C-0.136137665,10.3647286 0.0460334555,11.1044187 0.574609116,11.6085094 L5.91335335,16.7198562 L4.67491986,23.8070061 C4.55024471,24.5213805 4.87248886,25.2373678 5.50484934,25.6550143 C5.85274604,25.8837065 6.26074206,26 6.66937305,26 Z M9.0873076,9.36062755 L10.3341892,9.18497219 L10.8815258,8.11232645 L14.0001085,2 L17.1181644,8.11232645 L17.6659658,9.18497219 L18.9126925,9.36062755 L26,10.3557541 L20.8315772,15.2292974 L19.9633731,16.0479193 L20.1654295,17.1902649 L21.3731204,23.9988871 L15.1272805,20.8233849 L13.9987453,20.2492689 L12.8702411,20.8233849 L6.62452513,24 L7.8322471,17.1904114 L8.03430343,16.0479193 L7.1660374,15.2292974 L2,10.3557541 L9.0873076,9.36062755 Z"/>
                        </g>
                    </g>
                </g>
            </g>
        </g>
    </g>
</symbol><symbol id="star" viewBox="0 0 24 24"><g id="star"><polygon points="12,17.273 18.18,21 16.545,13.971 22,9.244 14.809,8.627 12,2 9.191,8.627 2,9.244 7.455,13.971 5.82,21 "/></g></symbol><symbol id="time" viewBox="0 0 24 24"><g id="schedule"><path fill-opacity="0.9" d="M12,2C6.5,2,2,6.5,2,12s4.5,10,10,10c5.5,0,10-4.5,10-10S17.5,2,12,2z M12,20c-4.4,0-8-3.6-8-8s3.6-8,8-8c4.4,0,8,3.6,8,8S16.4,20,12,20z"/><polygon fill-opacity="0.9" points="12.5,7 11,7 11,13 16.2,16.2 17,14.9 12.5,12.2 "/></g></symbol><symbol id="toast-error" viewBox="0 0 24 24"><g id="clear"><polygon points="19,6.4 17.6,5 12,10.6 6.4,5 5,6.4 10.6,12 5,17.6 6.4,19 12,13.4 17.6,19 19,17.6 13.4,12 "/></g></symbol><symbol id="toast-fail" viewBox="0 0 108.364 108.364">
<g>
	<g>
		<path d="M54.182,0C24.258,0,0,24.258,0,54.182c0,29.924,24.258,54.183,54.182,54.183c29.923,0,54.182-24.259,54.182-54.183
			C108.364,24.258,84.105,0,54.182,0z M68.713,33.622c3.424,0,6.201,2.777,6.201,6.201c0,3.426-2.777,6.203-6.201,6.203
			c-3.423,0-6.203-2.777-6.203-6.203C62.51,36.399,65.29,33.622,68.713,33.622z M40.594,33.622c3.423,0,6.2,2.777,6.2,6.201
			c0,3.426-2.777,6.203-6.2,6.203c-3.423,0-6.201-2.777-6.201-6.203C34.393,36.399,37.17,33.622,40.594,33.622z M76.607,79.098
			c-1.521,0.66-3.286-0.041-3.944-1.562c-2.894-6.689-9.731-11.012-17.421-11.012c-7.868,0-14.747,4.32-17.523,11.005
			c-0.479,1.153-1.596,1.85-2.771,1.85c-0.384,0-0.773-0.073-1.15-0.229c-1.53-0.637-2.255-2.393-1.62-3.922
			c3.71-8.932,12.764-14.703,23.064-14.703c10.084,0,19.084,5.742,22.928,14.63C78.828,76.674,78.128,78.439,76.607,79.098z"/>
	</g>
</g>
<g>
</g>
<g>
</g>
<g>
</g>
<g>
</g>
<g>
</g>
<g>
</g>
<g>
</g>
<g>
</g>
<g>
</g>
<g>
</g>
<g>
</g>
<g>
</g>
<g>
</g>
<g>
</g>
<g>
</g>
</symbol><symbol id="toast-loading" viewBox="0 0 399.389 399.389">
<g>
	<path d="M340.896,58.489C303.18,20.773,253.031,0.001,199.693,0.001c-53.34,0-103.487,20.771-141.204,58.488
		C20.772,96.207,0,146.355,0,199.694c0,53.34,20.772,103.489,58.49,141.206c37.717,37.717,87.864,58.488,141.204,58.488
		c53.339,0,103.486-20.771,141.205-58.488c37.717-37.717,58.49-87.865,58.49-141.206C399.387,146.355,378.613,96.207,340.896,58.489
		z M77.457,199.694c0-67.401,54.835-122.236,122.236-122.236S321.93,132.293,321.93,199.694s-54.836,122.237-122.237,122.237
		S77.457,267.096,77.457,199.694z M328.061,328.063c-34.289,34.287-79.877,53.17-128.368,53.17v-41.147
		c77.413,0,140.389-62.979,140.389-140.391c0-77.412-62.979-140.391-140.389-140.391c-4.593,0-9.134,0.229-13.615,0.662V18.655
		c4.508-0.332,9.049-0.5,13.615-0.5c48.491,0,94.079,18.883,128.368,53.171c34.289,34.289,53.172,79.878,53.172,128.368
		C381.232,248.187,362.35,293.776,328.061,328.063z"/>
</g>
<g>
</g>
<g>
</g>
<g>
</g>
<g>
</g>
<g>
</g>
<g>
</g>
<g>
</g>
<g>
</g>
<g>
</g>
<g>
</g>
<g>
</g>
<g>
</g>
<g>
</g>
<g>
</g>
<g>
</g>
</symbol><symbol id="toast-success" viewBox="0 0 24 24"><g id="check"><polygon points="9,16.2 4.8,12 3.4,13.4 9,19 21,7 19.6,5.6 "/></g></symbol><symbol id="user" viewBox="0 0 24 24"><g id="person"><path d="M12,12c2.2,0,4-1.8,4-4c0-2.2-1.8-4-4-4C9.8,4,8,5.8,8,8C8,10.2,9.8,12,12,12z M12,14c-2.7,0-8,1.3-8,4v2h16v-2C20,15.3,14.7,14,12,14z"/></g></symbol></svg>